<svg data-name="Layer 1" xmlns="http://www.w3.org/2000/svg" viewBox="0 0 60.76 70.45">
    <path d="M14.56,10.85c0-.21.91-2.72.63-2.71s-2.23,2-2.49,2.13S10.52,9.34,10,9.35s1.5,2.33,1.57,2.52S10.32,14,10.09,14.72c-.15.51,2.24-1.14,2.59-1.23,0,0,2.4,2.74,2.61,2.5s-.77-2.91-.69-3.06,2.83.09,3.12-.18-3.17-1.68-3.16-1.9"
    />
    <path d="M56.79,13.88c-2.27-.44-5.92.9-8.12,2.26a16.19,16.19,0,0,0-2.81-2.8c-.37-.3-.74-.58-1.12-.86s-.61-.31-.63-.75c0-1-.07-2-.11-3.05a18.73,18.73,0,0,0,2.18-.56A5.85,5.85,0,0,0,47.93,7c.45-.41.42-.65.38-1.23-.05-.76,0-1.55,0-2.32s0-.92-.5-1.35A8.66,8.66,0,0,0,44.64.59,21.1,21.1,0,0,0,39,0a21.33,21.33,0,0,0-5.7.59,8.66,8.66,0,0,0-3.17,1.5c-.54.43-.5.71-.5,1.35s.05,1.56,0,2.32c0,.58-.07.82.38,1.23a5.85,5.85,0,0,0,1.75,1.13A19.26,19.26,0,0,0,34,8.68c0,1-.07,2-.1,3.05,0,.44-.32.51-.63.75s-.75.56-1.12.86a14.48,14.48,0,0,0-3.52,3.84l-4.13-1.6c-.65-.26-1.34-.47-2-.78a1.47,1.47,0,0,0-1.55,0c-1.22.65-1.49,1.9-1.53,3.18a1.46,1.46,0,0,0,0,.55c.07.19.45.41.6.55l1.8,1.57,3.47,3,1.6,1.4c0,2.44,1.73,7.47,3.12,10.46.59,1.28,1.27,3.13,2.3,5.45a17.25,17.25,0,0,1,1.19,4.72,8.93,8.93,0,0,1-.1,2.4A27.12,27.12,0,0,0,34,51.78c.21,1.06.07,4.42.11,5.24a6,6,0,0,1-.79,2.26,4.4,4.4,0,0,0,.17,2.16c.17.78-.62,1.91-1.13,2.6a2.24,2.24,0,0,0-.58,1.37,10.66,10.66,0,0,0-1.54,3,7.63,7.63,0,0,0,2.36.41,9,9,0,0,0,3.63-.35,5,5,0,0,0,.27-1.67,1.49,1.49,0,0,0,0-.43,1.53,1.53,0,0,0,0-1.46,8.29,8.29,0,0,1-.38-3c.65-.62.65-.65.72-1.27a8.66,8.66,0,0,0-.34-2,22,22,0,0,1,.1-4.24,23.69,23.69,0,0,1,1-3.91,6.37,6.37,0,0,0-.07-3,12.61,12.61,0,0,1-.34-2.7c0-.67.32-3.45.53-5.51a.51.51,0,0,1,.25-.11c.51,0,1.19,1.09,1.9,2.27.11.92.22,1.81.29,2.43a10.57,10.57,0,0,1-.79,4.24A3.77,3.77,0,0,0,40,51.24c.14.74.3,1.63.39,2.4a23.76,23.76,0,0,1-.08,5.73c-.32,1.34,0,3.62-.24,4.4s-1.26,2-.9,2.76c-.84,1.14-1.9,3.34-1.73,3.46.61.44,2.61.55,4.32.38s1.85-.62,1.88-.89.07-1.27.14-1.78c0-.12,0-.22,0-.3.32-.53-.08-1-.43-1.51a3.8,3.8,0,0,1-.55-2.28c.55-.86,1.1-1.09,1.18-2A9.15,9.15,0,0,0,43.38,59c-.24-1,.16-4.95.24-6.91,0-.13,0-.26,0-.38.15-.87.23-1.66.4-2.45.31-1.49-.24-2-.24-2.66a47.92,47.92,0,0,1,.45-5.08,24.23,24.23,0,0,1,.86-2.94A12.21,12.21,0,0,1,47,34.73a17.74,17.74,0,0,0,2.17-3.14h0c4-.8,3.24-3.3,5.85-5.23,4.13-3.06,5-3.61,5.32-4.76,1.1-3.58.35-7-3.51-7.73M50.94,25.22a20.92,20.92,0,0,0-1-6.47c3.24-2.89,7.6-2.9,7.85.27.2,2.54-5.52,4.89-6.89,6.2"
    />
    <path d="M7.13,7.33c.18-.16,3.13-1.57,2.91-1.79S6.7,5,6.43,4.89s-.87-2.56-1.29-3S4.27,4.77,4.16,5,.81,5.35.05,5.71C-.48,6,3.26,7.07,3.6,7.29c0,0-1.12,4.65-.77,4.64S5.31,8.75,5.48,8.69s2.2,2.12,2.63,2.14S7,7,7.14,6.84"
    />
</svg>